<svg width="249" height="211" viewBox="0 0 249 211" fill="none" xmlns="http://www.w3.org/2000/svg">
<path d="M147.767 23.2959C155.64 27.1121 162.272 33.3617 166.849 41.2752C171.425 49.1891 174.336 56.379 174.336 67.6181C174.336 69.5343 174.334 83.0994 165.024 95.2054L165.159 95.3285L99.8844 173.355L99.9053 173.374C99.8204 173.463 99.734 173.549 99.649 173.637L99.4093 173.924L99.3883 173.905C92.5218 180.917 85.3073 185.465 76.4821 188.13C67.4353 190.862 57.8361 190.785 48.9608 187.909C40.0857 185.032 32.3541 179.492 26.7917 172.025C21.2293 164.558 18.0988 155.517 17.818 146.102C17.5371 136.688 20.1191 127.345 25.2193 119.315C30.3194 111.285 37.6968 104.947 46.3727 101.144C55.0486 97.3409 64.6127 96.2524 73.7937 98.0219C82.9746 99.7916 91.3393 104.335 97.7758 111.051L80.2443 132.392C74.6279 124.999 72.372 124.405 68.3428 123.628C64.3131 122.852 60.1145 123.329 56.3065 124.999C52.4986 126.668 49.261 129.45 47.0225 132.974C44.784 136.499 43.6506 140.599 43.7739 144.732C43.8971 148.864 45.27 152.832 47.7113 156.11C50.1526 159.387 53.5471 161.818 57.4423 163.081C61.3378 164.343 65.5515 164.377 69.5223 163.178C73.4007 162.006 77.4118 159.466 80.0569 156.333L80.026 156.306L144.706 78.9885C146.578 75.5485 148.477 70.9777 148.556 67.62C148.652 63.4874 147.633 59.4354 145.625 55.9622C143.616 52.4887 140.704 49.7452 137.249 48.0702C133.794 46.3954 129.945 45.8609 126.176 46.5335C122.407 47.2063 118.882 49.0574 116.036 51.8572C113.189 54.6572 111.145 58.2849 110.154 62.2936C109.164 66.3024 109.271 70.5178 110.461 74.4208C111.652 78.3238 113.948 81.1638 119.566 85.5546L101.299 105.755C94.2875 98.7275 89.4444 92.2251 86.7324 83.3324C84.0205 74.4398 83.778 64.8357 86.0346 55.7022C88.2913 46.5685 92.9489 38.3034 99.4341 31.9241C105.919 25.5448 113.95 21.3299 122.537 19.7971C131.124 18.2642 139.894 19.4796 147.767 23.2959Z" fill="url(#paint0_linear_45_435)"/>
<path d="M179.055 95.9424C188.895 91.2626 199.942 90.0966 210.483 92.625C221.024 95.1533 230.471 101.235 237.358 109.927C244.246 118.619 248.191 129.436 248.58 140.702C248.969 151.968 245.782 163.053 239.513 172.239C233.243 181.425 224.241 188.199 213.901 191.512C203.562 194.824 192.463 194.49 182.325 190.561C172.187 186.631 163.576 179.325 157.826 169.776L173.521 152.104C176.492 157.039 185.362 165.333 190.603 167.364C195.843 169.395 201.581 169.569 206.925 167.856C212.269 166.144 216.921 162.643 220.162 157.895C223.403 153.146 225.051 147.417 224.85 141.594C224.648 135.771 222.609 130.178 219.049 125.686C215.489 121.193 210.606 118.049 205.157 116.742C199.709 115.435 193.998 116.038 188.912 118.457C184.234 120.682 181.078 124.928 177.864 129.047L178.024 129.189L126.257 192.271L107.517 175.581L159.284 112.498L159.409 112.609C164.727 105.878 172.26 99.1739 179.055 95.9424Z" fill="url(#paint1_linear_45_435)"/>
<defs>
<linearGradient id="paint0_linear_45_435" x1="158.989" y1="31.1474" x2="28.2862" y2="174.495" gradientUnits="userSpaceOnUse">
<stop stop-color="#02D292"/>
<stop offset="1" stop-color="#059669"/>
</linearGradient>
<linearGradient id="paint1_linear_45_435" x1="178.064" y1="91.3203" x2="178.064" y2="193.773" gradientUnits="userSpaceOnUse">
<stop stop-color="#02D292"/>
<stop offset="1" stop-color="#059669"/>
</linearGradient>
</defs>
</svg>
